REM MD5 108b379382ec35bf7fc8ab6085b43044
FILE "Simple 1500 Series Vol. 5 - The Igo (Japan).bin" BINARY
  TRACK 01 MODE2/2352
    INDEX 01 00:00:00
  TRACK 02 AUDIO
    INDEX 00 05:49:12
    INDEX 01 05:51:12
  TRACK 03 AUDIO
    INDEX 00 07:54:05
    INDEX 01 07:56:05
  TRACK 04 AUDIO
    INDEX 00 11:12:02
    INDEX 01 11:14:02
  TRACK 05 AUDIO
    INDEX 00 14:06:19
    INDEX 01 14:08:19
  TRACK 06 AUDIO
    INDEX 00 16:50:33
    INDEX 01 16:52:33
REM LEADOUT 19:26:53
